<svg id="Calque_1" data-name="Calque 1" xmlns="http://www.w3.org/2000/svg" viewBox="0 0 329.52 80.88"><defs><style>.cls-1{fill:#fff;}</style></defs><title>LOGO_WHITE</title><rect class="cls-1" x="540.78" y="295.66" width="7.84" height="77.75" transform="translate(623.05 -467.74) rotate(90)"/><path class="cls-1" d="M256.19,297.93q0-11.73,5.11-17t16.41-5.29q11.31,0,16.37,5.29t5.07,17q0,11.81-5.07,17.06t-16.37,5.26q-11.29,0-16.41-5.26T256.19,297.93Zm7.35,0q0,8.93,3.32,12.82t10.85,3.89q7.44,0,10.77-3.89t3.31-12.82q0-8.93-3.31-12.82t-10.77-3.9q-7.53,0-10.85,3.9T263.54,297.93Z" transform="translate(-256.19 -257.58)"/><path class="cls-1" d="M316.37,313.24a1.79,1.79,0,0,0,.13.79,1.06,1.06,0,0,0,.58.44l2.69,1.14-.71,3.59H310c-.54,0-.81-.3-.81-.88V263.53a1.82,1.82,0,0,0-.13-.79,1.06,1.06,0,0,0-.58-.44l-2.69-1.13.71-3.59h9.06q.81,0,.81.87Z" transform="translate(-256.19 -257.58)"/><path class="cls-1" d="M324.35,276.66h7.8l14.44,34,12.47-34h7.62L348,325.15a41.27,41.27,0,0,1-3,6.3,15.2,15.2,0,0,1-3.5,4.11,11.71,11.71,0,0,1-4.44,2.23,22.48,22.48,0,0,1-5.78.66h-1.48a6.58,6.58,0,0,1-1.48-.17v-5.43a9,9,0,0,0,1.3.09h1.12a13.67,13.67,0,0,0,3.63-.44,7.83,7.83,0,0,0,2.83-1.44,9.68,9.68,0,0,0,2.24-2.72,31.94,31.94,0,0,0,2-4.24l1.71-4.64Z" transform="translate(-256.19 -257.58)"/><path class="cls-1" d="M408.93,281.38a22.44,22.44,0,0,1,6.77-4.2,23.14,23.14,0,0,1,8.74-1.57q8.43,0,12.2,3.72t3.77,12.12v21.79a1.79,1.79,0,0,0,.13.79,1.05,1.05,0,0,0,.59.44l2.69,1.14-.72,3.59H434c-.54,0-.81-.3-.81-.88V291.71c0-3.67-.77-6.31-2.33-7.92s-4.12-2.41-7.71-2.41a27.49,27.49,0,0,0-7.4.92,14.84,14.84,0,0,0-5.25,2.5,14.85,14.85,0,0,1,.58,3c.1,1,.14,2.13.14,3.42v28h-7.18V291.71c0-3.67-.77-6.31-2.33-7.92s-4.13-2.41-7.71-2.41a23.51,23.51,0,0,0-3.81.31,27.22,27.22,0,0,0-3.41.79c-1.05.32-2,.66-2.83,1a7.16,7.16,0,0,0-1.88,1.05V319.2h-7.17V282.61a1.8,1.8,0,0,0-.14-.79,1.07,1.07,0,0,0-.58-.44l-2.69-1.13.71-3.59h9.06q.81,0,.81.87v2.63a19.14,19.14,0,0,1,5.56-3.28,21.53,21.53,0,0,1,7.89-1.27,19.81,19.81,0,0,1,8.39,1.44A12.62,12.62,0,0,1,408.93,281.38Z" transform="translate(-256.19 -257.58)"/><path class="cls-1" d="M453.32,282.61a1.82,1.82,0,0,0-.13-.79,1.1,1.1,0,0,0-.59-.44l-2.69-1.13.72-3.59h9.06q.81,0,.81.87V281a13.18,13.18,0,0,1,5.38-4,23.7,23.7,0,0,1,9.06-1.4q9.94,0,14.44,5.25t4.48,17.07q0,11.81-4.48,17.06t-14.44,5.26a24.35,24.35,0,0,1-8.75-1.32,19.3,19.3,0,0,1-5.69-3.32V337.4h-7.18Zm19.91-1.4q-6.81,0-9.77,2.8t-3,9.37v17.24a20.12,20.12,0,0,0,5.24,2.84,21,21,0,0,0,7.49,1.18q7.09,0,10.18-3.89t3.1-12.82q0-8.93-3.1-12.82T473.23,281.21Z" transform="translate(-256.19 -257.58)"/><path class="cls-1" d="M511.26,302.48q0,6.57,2.74,9.37c1.82,1.86,4.89,2.79,9.19,2.79s7.29-.93,9.15-2.79,2.78-5,2.78-9.37V276.66h7.17V303q0,9.11-4.53,13.18t-14.57,4.07q-10.14,0-14.62-4.07T504.08,303V282.43c0-.29-.2-.55-.62-.78l-2.78-1.32.63-3.67h9.14q.81,0,.81.87Z" transform="translate(-256.19 -257.58)"/><path class="cls-1" d="M552.52,287.86q0-6.21,4.57-9.23t12.74-3a53.33,53.33,0,0,1,7.26.48,47.7,47.7,0,0,1,6.82,1.44L582.74,283A41,41,0,0,0,570.19,281q-5.57,0-8.16,1.71a5.63,5.63,0,0,0-2.61,5,4.34,4.34,0,0,0,1.93,3.9,15.79,15.79,0,0,0,4.89,2c2,.5,4.08.95,6.33,1.36a26.43,26.43,0,0,1,6.32,2,13.38,13.38,0,0,1,4.89,3.72,10.27,10.27,0,0,1,1.92,6.65q0,6.39-4.53,9.63t-12.95,3.24a51.63,51.63,0,0,1-15.25-2.1v-5.69a46.29,46.29,0,0,0,14.71,2.36q5.73,0,8.43-1.92a6.31,6.31,0,0,0,2.69-5.43,5,5,0,0,0-1.93-4.29A14.94,14.94,0,0,0,572,301c-2-.52-4.08-1-6.32-1.36a28.48,28.48,0,0,1-6.32-1.79,12.52,12.52,0,0,1-4.89-3.5A9.73,9.73,0,0,1,552.52,287.86Z" transform="translate(-256.19 -257.58)"/></svg>