<svg id="Calque_1" data-name="Calque 1" xmlns="http://www.w3.org/2000/svg" viewBox="0 0 461.96 109.9"><defs><style>.cls-1{fill:#ffcd01;}.cls-2{fill:#b7b7b9;}.cls-3{fill:#201d1d;}</style></defs><title>LOGO_FULL</title><rect class="cls-1" x="605.04" y="295.66" width="7.84" height="77.75" transform="translate(755.49 -517.12) rotate(90)"/><path class="cls-1" d="M226.62,351.79l42.45-60.48c2.66-3.33,1.49-5.93-2.56-5.93h-.44l-15,.91H251a1.3,1.3,0,0,1-1.27-1.57l11.1-39.58a2,2,0,0,0-2-2.46,2,2,0,0,0-1.59.8l-45.09,62.88c-2.61,3.37-1.39,6,2.67,6h.43l18.23-.95h.05a1.18,1.18,0,0,1,1.1,1.61l-11.58,36.71a2.09,2.09,0,0,0,2,2.86A2,2,0,0,0,226.62,351.79Z" transform="translate(-188.01 -242.69)"/><path class="cls-2" d="M222.7,339.45a42.24,42.24,0,0,1,15.38-81.58,43.64,43.64,0,0,1,4.46.24l5.12-7.14a50.07,50.07,0,0,0-27.32,96Z" transform="translate(-188.01 -242.69)"/><path class="cls-2" d="M261.41,255.83l-2.17,7.75a42.23,42.23,0,0,1-21.16,78.79l-.65,0-5.26,7.48a50.05,50.05,0,0,0,29.24-94Z" transform="translate(-188.01 -242.69)"/><path class="cls-2" d="M320.45,297.93q0-11.73,5.11-17T342,275.61q11.31,0,16.37,5.29t5.07,17q0,11.81-5.07,17.06T342,320.25q-11.3,0-16.41-5.26T320.45,297.93Zm7.35,0q0,8.93,3.32,12.82T342,314.64c5,0,8.55-1.29,10.77-3.89s3.32-6.87,3.32-12.82-1.11-10.23-3.32-12.82-5.8-3.9-10.77-3.9-8.64,1.3-10.85,3.9S327.8,292,327.8,297.93Z" transform="translate(-188.01 -242.69)"/><path class="cls-2" d="M380.63,313.24a1.79,1.79,0,0,0,.13.79,1.05,1.05,0,0,0,.59.44l2.69,1.14-.72,3.59h-9.06c-.54,0-.81-.3-.81-.88V263.53a1.82,1.82,0,0,0-.13-.79,1,1,0,0,0-.58-.44l-2.69-1.13.71-3.59h9.06q.81,0,.81.87Z" transform="translate(-188.01 -242.69)"/><path class="cls-2" d="M388.61,276.66h7.8l14.45,34,12.46-34H431l-18.66,48.49a41.27,41.27,0,0,1-3,6.3,15.2,15.2,0,0,1-3.5,4.11,11.63,11.63,0,0,1-4.44,2.23,22.48,22.48,0,0,1-5.78.66h-1.48a6.58,6.58,0,0,1-1.48-.17v-5.43a9,9,0,0,0,1.3.09h1.12a13.62,13.62,0,0,0,3.63-.44,7.83,7.83,0,0,0,2.83-1.44,9.68,9.68,0,0,0,2.24-2.72,30.72,30.72,0,0,0,2-4.24l1.71-4.64Z" transform="translate(-188.01 -242.69)"/><path class="cls-2" d="M473.19,281.38a22.44,22.44,0,0,1,6.77-4.2,23.2,23.2,0,0,1,8.75-1.57q8.42,0,12.19,3.72t3.77,12.12v21.79a1.79,1.79,0,0,0,.13.79,1.09,1.09,0,0,0,.59.44l2.69,1.14-.72,3.59H498.3c-.54,0-.81-.3-.81-.88V291.71c0-3.67-.77-6.31-2.33-7.92s-4.12-2.41-7.71-2.41a27.49,27.49,0,0,0-7.4.92,14.93,14.93,0,0,0-5.25,2.5,15.62,15.62,0,0,1,.59,3c.09,1,.13,2.13.13,3.42v28h-7.17V291.71q0-5.5-2.34-7.92c-1.55-1.6-4.12-2.41-7.71-2.41a23.6,23.6,0,0,0-3.81.31,27.22,27.22,0,0,0-3.41.79,29.15,29.15,0,0,0-2.82,1,7.25,7.25,0,0,0-1.89,1.05V319.2H439.2V282.61a1.8,1.8,0,0,0-.14-.79,1.07,1.07,0,0,0-.58-.44l-2.69-1.13.71-3.59h9.07c.53,0,.8.29.8.87v2.63a19.14,19.14,0,0,1,5.56-3.28,21.57,21.57,0,0,1,7.89-1.27,19.81,19.81,0,0,1,8.39,1.44A12.62,12.62,0,0,1,473.19,281.38Z" transform="translate(-188.01 -242.69)"/><path class="cls-2" d="M517.58,282.61a1.82,1.82,0,0,0-.13-.79,1.11,1.11,0,0,0-.58-.44l-2.69-1.13.71-3.59H524q.81,0,.81.87V281a13.18,13.18,0,0,1,5.38-4,23.7,23.7,0,0,1,9.06-1.4q10,0,14.44,5.25t4.48,17.07q0,11.81-4.48,17.06t-14.44,5.26a24.35,24.35,0,0,1-8.75-1.32,19.3,19.3,0,0,1-5.69-3.32V337.4h-7.18Zm19.91-1.4q-6.81,0-9.77,2.8t-3,9.37v17.24a20.12,20.12,0,0,0,5.24,2.84,21.07,21.07,0,0,0,7.49,1.18q7.1,0,10.18-3.89t3.1-12.82q0-8.93-3.1-12.82T537.49,281.21Z" transform="translate(-188.01 -242.69)"/><path class="cls-3" d="M575.52,302.48q0,6.57,2.74,9.37c1.82,1.86,4.89,2.79,9.19,2.79s7.3-.93,9.15-2.79,2.78-5,2.78-9.37V276.66h7.17V303q0,9.11-4.52,13.18t-14.58,4.07q-10.14,0-14.62-4.07T568.34,303V282.43c0-.29-.2-.55-.62-.78l-2.78-1.32.63-3.67h9.14q.81,0,.81.87Z" transform="translate(-188.01 -242.69)"/><path class="cls-3" d="M616.78,287.86q0-6.21,4.57-9.23t12.74-3a53.59,53.59,0,0,1,7.27.48,47.86,47.86,0,0,1,6.81,1.44L647,283A41.07,41.07,0,0,0,634.45,281q-5.57,0-8.16,1.71a5.63,5.63,0,0,0-2.6,5,4.32,4.32,0,0,0,1.93,3.9,15.62,15.62,0,0,0,4.88,2c2,.5,4.08.95,6.33,1.36a26.43,26.43,0,0,1,6.32,2,13.38,13.38,0,0,1,4.89,3.72,10.27,10.27,0,0,1,1.93,6.65c0,4.26-1.52,7.47-4.53,9.63s-7.35,3.24-13,3.24a51.63,51.63,0,0,1-15.25-2.1v-5.69a46.29,46.29,0,0,0,14.71,2.36c3.82,0,6.64-.64,8.43-1.92a6.31,6.31,0,0,0,2.69-5.43,5,5,0,0,0-1.93-4.29,14.85,14.85,0,0,0-4.89-2.19c-2-.52-4.08-1-6.32-1.36a28.48,28.48,0,0,1-6.32-1.79,12.52,12.52,0,0,1-4.89-3.5A9.73,9.73,0,0,1,616.78,287.86Z" transform="translate(-188.01 -242.69)"/></svg>