<svg id="Calque_1" data-name="Calque 1" xmlns="http://www.w3.org/2000/svg" viewBox="0 0 100.15 113.33">
  <defs>
    <style>.cls-1{fill:#fff;}</style>
  </defs>
  <title>LOGO_2</title>
  <path class="cls-1"
        d="M420.37,187.22,418.2,195A42.23,42.23,0,0,1,397,273.76l-.65,0-5.26,7.49a50.06,50.06,0,0,0,29.24-94Z"
        transform="translate(-346.97 -172.37)"/>
  <path class="cls-1"
        d="M381.66,270.85A42.24,42.24,0,0,1,397,189.27a43.66,43.66,0,0,1,4.46.23l5.12-7.13a49.56,49.56,0,0,0-9.58-.93,50.07,50.07,0,0,0-17.74,96.89Z"
        transform="translate(-346.97 -172.37)"/>
  <path class="cls-1"
        d="M384,285.69a4,4,0,0,1-3.21-1.69,3.77,3.77,0,0,1-.39-3.44l11.36-36-17.45.9h-.52c-3.53,0-4.86-1.64-5.34-2.62s-1-3.16,1.31-6.14l45.06-62.83a3.74,3.74,0,0,1,3-1.51,3.84,3.84,0,0,1,3,1.41,3.67,3.67,0,0,1,.74,3.12l0,.11L410.54,216l14.39-.87.54,0c3.52,0,4.84,1.64,5.31,2.62s.94,3.12-1.37,6L387,284.21l0,0A3.72,3.72,0,0,1,384,285.69Z"
        transform="translate(-346.97 -172.37)"/>
</svg>
